<?xml version="1.0" encoding="UTF-8"?>
<svg version="1.1" viewBox="0 0 2116 1792" width="1280" height="1280" xmlns="http://www.w3.org/2000/svg">
<path transform="translate(1441)" d="m0 0h99v1l47 8 32 8 30 10 24 10 21 10 23 13 20 12 24 13 20 9 15 6 25 8 22 5 27 4h34l18-3 36-12 28-11 23-9 14-4 5-1h22l9 4 6 5 4 8 1 5v8l-3 14-9 19-7 11-12 17-14 18-9 10-7 8-5 6h-2l-2 4-8 8-9 11-8 11-4 10 1 7 5 3 4 1h16l18-3 49-13 21-3h12l8 2 7 4 4 4v22l-5 9-8 12-13 16-15 16-11 12-33 33-8 7-13 13h-2v2l-8 7-17 17-1 2h-2l-2 4-9 9-18 22-8 14-1 2-2 101-4 52-6 50-7 46-13 65-15 60-9 31-12 38-12 34-12 31-12 29-13 30-19 40-9 17-6 12-12 22-15 27-7 11-5 9-12 19-10 16-15 23-11 16-7 10-13 18-14 19-11 14-12 15-11 14-11 13-9 11-9 10-7 8-11 12-7 8-8 8-7 8-42 42-8 7-13 13-8 7-12 11-11 9-10 9-10 8-12 10-30 23-20 14-16 11-12 8-22 14-15 9-24 14-29 16-37 19-28 13-34 15-35 14-35 13-44 15-48 14-56 14-44 9-47 8-66 9-13 2h-259l-92-13-33-6-47-10-47-12-40-12-37-12-38-14-37-15-36-16-36-17-29-15-22-13-16-12-12-11-5-6v-12l5-3h92l38-2 45-4 49-7 41-8 29-7 36-10 37-12 37-14 28-12 28-13 17-9 16-8 25-14 18-11 11-9 7-7 5-8 2-6v-7l-5-10-8-8-16-9-19-7-36-12-25-10-29-14-23-13-17-11-17-12-13-10-11-9-14-12-7-7-8-7-12-12-7-8-9-10-9-11-15-20-10-15-8-14-9-19-6-18-2-10v-25l3-10 4-6 7-4 31 1h35l30-2 19-3 4-2-2-4-11-8-17-10-33-17-28-15-19-12-16-11-17-13-13-11-8-7-10-9-22-22-7-8-12-14-14-18-12-17-14-22-10-18-8-15-9-20-11-29-8-26-7-31-5-32-3-30v-34l3-1 19 9 34 14 19 7 30 9 16 3h13l8-3 4-4 1-4-4-13-7-12-8-10-12-14-11-13-14-18-14-20-13-21-13-24-12-25-11-28-9-28-6-24-5-27-4-32-1-15v-53l2-24 4-29 6-29 6-21 8-16 8-10 7-7 12-7 16-4h14l15 3 12 5 11 6 13 10 13 12 32 32 8 7 16 15 8 7 28 24 14 11 13 11 19 14 13 10 18 13 22 15 12 8 20 13 21 13 20 12 21 12 10 6 14 7 22 12 26 13 20 9 15 7 32 14 41 16 27 10 43 14 35 10 38 10 35 8 53 10 42 6 11 1h22l17-2 16-4 13-5 11-7 7-8 2-6v-14l-2-26v-41l3-36 5-32 6-27 9-31 12-32 16-33 12-21 13-20 13-18 13-16 9-11 14-15 6-7 8-7 14-14 11-9 13-11 19-14 15-10 18-11 22-12 23-11 26-10 22-7 27-7 32-6z" fill="#fff"/>
<path transform="translate(518,1791)" d="m0 0 2 1z" fill="#fff"/>
<path transform="translate(2115,279)" d="m0 0" fill="#fff"/>
</svg>
